<svg width="30" height="30" viewBox="0 0 30 30" fill="none" xmlns="http://www.w3.org/2000/svg">
<g clip-path="url(#clip0)">
<path d="M15.0533 29.0305C22.9614 29.0305 29.3722 22.6197 29.3722 14.7116C29.3722 6.80349 22.9614 0.3927 15.0533 0.3927C7.14516 0.3927 0.734375 6.80349 0.734375 14.7116C0.734375 22.6197 7.14516 29.0305 15.0533 29.0305Z" fill="#3B5998"/>
<path d="M18.6525 15.2721H16.0974V24.6325H12.2264V15.2721H10.3853V11.9825H12.2264V9.85369C12.2264 8.33139 12.9495 5.94763 16.1319 5.94763L18.9994 5.95963V9.15278H16.9188C16.5776 9.15278 16.0977 9.32328 16.0977 10.0495V11.9855H18.9907L18.6525 15.2721Z" fill="white"/>
</g>
<defs>
<clipPath id="clip0">
<rect width="28.6378" height="28.6378" fill="white" transform="translate(0.734375 0.3927)"/>
</clipPath>
</defs>
</svg>
