<svg width="30" height="30" viewBox="0 0 30 30" fill="none" xmlns="http://www.w3.org/2000/svg">
<g clip-path="url(#clip0)">
<path d="M14.8814 0.965393C22.7568 0.965393 29.2003 7.40889 29.2003 15.2843C29.2003 23.1597 22.7568 29.6032 14.8814 29.6032C7.006 29.6032 0.5625 23.1596 0.5625 15.2843C0.5625 7.40899 7.006 0.965393 14.8814 0.965393Z" fill="#DD4B39"/>
<path d="M22.1295 12.8679V14.4788H23.7403V16.0897H22.1295V17.7006H20.5186V16.0897H18.9077V14.4788H20.5186V12.8679H22.1295Z" fill="white"/>
<path d="M7.63258 19.3115C5.48475 17.1636 5.48475 13.4049 7.72204 11.2572C9.33293 9.64628 11.6597 9.28835 13.7181 10.0938L14.5235 10.5412L15.4184 11.1677L13.9865 12.5996L13.4496 12.2417C12.1967 11.4363 10.4068 11.6152 9.24348 12.7786C7.90105 14.1211 7.81159 16.5374 9.24348 17.9692C10.5859 19.4011 13.0022 19.4011 14.2551 17.9692C14.613 17.6113 14.971 17.0743 15.0605 16.5374V16.3583H11.8388V14.5685H16.9399L17.0293 15.016V16.2689C16.9399 17.4323 16.4924 18.5957 15.6869 19.4011C13.5391 21.4593 9.78041 21.4593 7.63258 19.3115Z" fill="white"/>
</g>
<defs>
<clipPath id="clip0">
<rect width="28.6378" height="28.6378" fill="white" transform="translate(0.5625 0.965393)"/>
</clipPath>
</defs>
</svg>
