<svg width="144" height="61" viewBox="0 0 144 61" fill="none" xmlns="http://www.w3.org/2000/svg">
<path d="M66.1064 33.8397H59.1747V41H55.5644V23.4783H66.9728V26.4026H59.1747V30.9274H66.1064V33.8397ZM72.5085 41H69.0186V27.979H72.5085V41ZM68.8141 24.6095C68.8141 24.088 68.9865 23.6588 69.3315 23.3218C69.6845 22.9849 70.1619 22.8164 70.7636 22.8164C71.3573 22.8164 71.8306 22.9849 72.1836 23.3218C72.5366 23.6588 72.7131 24.088 72.7131 24.6095C72.7131 25.139 72.5326 25.5722 72.1716 25.9092C71.8186 26.2461 71.3492 26.4146 70.7636 26.4146C70.1779 26.4146 69.7046 26.2461 69.3436 25.9092C68.9906 25.5722 68.8141 25.139 68.8141 24.6095ZM78.5858 27.979L78.6941 29.4833C79.6247 28.32 80.8723 27.7384 82.4367 27.7384C83.8166 27.7384 84.8436 28.1435 85.5175 28.9538C86.1914 29.7641 86.5364 30.9755 86.5524 32.5881V41H83.0745V32.6724C83.0745 31.9343 82.9141 31.4008 82.5932 31.0718C82.2723 30.7349 81.7387 30.5664 80.9926 30.5664C80.0138 30.5664 79.2798 30.9836 78.7904 31.8179V41H75.3125V27.979H78.5858ZM95.1929 41.2407C93.2835 41.2407 91.7271 40.655 90.5237 39.4837C89.3283 38.3124 88.7306 36.7519 88.7306 34.8024V34.4655C88.7306 33.1577 88.9833 31.9904 89.4887 30.9635C89.9942 29.9286 90.7082 29.1343 91.6308 28.5807C92.5615 28.0192 93.6205 27.7384 94.8078 27.7384C96.5889 27.7384 97.9889 28.2999 99.0078 29.4231C100.035 30.5463 100.548 32.1388 100.548 34.2007V35.6207H92.2566C92.3689 36.4711 92.7059 37.1531 93.2675 37.6665C93.8371 38.18 94.5551 38.4367 95.4216 38.4367C96.7614 38.4367 97.8084 37.9513 98.5625 36.9806L100.271 38.894C99.7499 39.6321 99.0439 40.2098 98.1533 40.6269C97.2628 41.0361 96.276 41.2407 95.1929 41.2407ZM94.7958 30.5543C94.1058 30.5543 93.5443 30.787 93.111 31.2523C92.6858 31.7177 92.413 32.3835 92.2927 33.25H97.1304V32.9732C97.1144 32.203 96.9058 31.6093 96.5047 31.1922C96.1035 30.767 95.5339 30.5543 94.7958 30.5543ZM106.373 34.8265V41H102.762V23.4783H109.598C110.914 23.4783 112.069 23.7189 113.064 24.2003C114.067 24.6817 114.837 25.3676 115.374 26.2582C115.912 27.1407 116.181 28.1475 116.181 29.2787C116.181 30.9956 115.591 32.3514 114.411 33.3463C113.24 34.3331 111.616 34.8265 109.538 34.8265H106.373ZM106.373 31.9022H109.598C110.553 31.9022 111.279 31.6775 111.776 31.2283C112.281 30.779 112.534 30.1372 112.534 29.3028C112.534 28.4444 112.281 27.7504 111.776 27.2209C111.271 26.6914 110.573 26.4186 109.682 26.4026H106.373V31.9022ZM125.844 41C125.683 40.6871 125.567 40.298 125.495 39.8327C124.653 40.7714 123.557 41.2407 122.21 41.2407C120.934 41.2407 119.875 40.8716 119.033 40.1335C118.198 39.3954 117.781 38.4648 117.781 37.3416C117.781 35.9617 118.29 34.9027 119.309 34.1646C120.336 33.4265 121.817 33.0534 123.75 33.0454H125.351V32.2993C125.351 31.6976 125.194 31.2162 124.881 30.8552C124.576 30.4942 124.091 30.3137 123.425 30.3137C122.839 30.3137 122.378 30.4541 122.041 30.7349C121.712 31.0157 121.548 31.4008 121.548 31.8901H118.07C118.07 31.136 118.303 30.438 118.768 29.7962C119.233 29.1544 119.891 28.653 120.741 28.2919C121.592 27.9229 122.547 27.7384 123.606 27.7384C125.21 27.7384 126.482 28.1435 127.42 28.9538C128.367 29.7561 128.84 30.8873 128.84 32.3474V37.9915C128.848 39.227 129.021 40.1616 129.358 40.7954V41H125.844ZM122.968 38.5811C123.481 38.5811 123.955 38.4688 124.388 38.2442C124.821 38.0115 125.142 37.7026 125.351 37.3175V35.0792H124.051C122.31 35.0792 121.383 35.6809 121.271 36.8843L121.259 37.0889C121.259 37.5221 121.411 37.8791 121.716 38.1599C122.021 38.4407 122.438 38.5811 122.968 38.5811ZM136.181 36.078L138.588 27.979H142.319L137.084 43.0217L136.795 43.7077C136.017 45.4085 134.733 46.2589 132.944 46.2589C132.439 46.2589 131.925 46.1827 131.404 46.0303V43.3948L131.933 43.4068C132.591 43.4068 133.08 43.3065 133.401 43.106C133.73 42.9054 133.987 42.5725 134.172 42.1071L134.581 41.0361L130.02 27.979H133.762L136.181 36.078Z" fill="#00162A"/>
<path d="M48.7384 0H26.0179V55.0683L48.7384 0Z" fill="#00162A"/>
<path d="M5.99314 9.24223H25.2478V54.6832L5.99314 9.24223Z" fill="#00162A"/>
<path d="M-2.22916e-05 31.4563L11.9612 26.1308L24.805 54.9784L-2.22916e-05 31.4563Z" fill="#00162A"/>
</svg>
