<svg width="30" height="30" viewBox="0 0 30 30" fill="none" xmlns="http://www.w3.org/2000/svg">
<g clip-path="url(#clip0)">
<path d="M14.7095 0.965393C22.618 0.965393 29.0284 7.37667 29.0284 15.2843C29.0284 23.1929 22.618 29.6032 14.7095 29.6032C6.80092 29.6032 0.390625 23.1928 0.390625 15.2843C0.390625 7.37667 6.80102 0.965393 14.7095 0.965393Z" fill="#26A6D1"/>
<path d="M23.661 10.6119C23.0355 10.8822 22.3624 11.0638 21.6564 11.1462C22.3777 10.7265 22.9308 10.0633 23.1912 9.27136C22.5164 9.66064 21.77 9.94258 20.9744 10.0938C20.3381 9.43602 19.4315 9.02521 18.4275 9.02521C16.5016 9.02521 14.9391 10.5404 14.9391 12.4107C14.9391 12.6765 14.9695 12.9351 15.0294 13.1831C12.1298 13.0417 9.55781 11.693 7.83779 9.64452C7.53708 10.1448 7.36524 10.7256 7.36524 11.3467C7.36524 12.5208 7.98092 13.5589 8.91706 14.1648C8.34435 14.1469 7.80731 13.9956 7.33575 13.7406V13.7836C7.33575 15.4249 8.5385 16.7933 10.135 17.1047C9.8424 17.1817 9.53451 17.2237 9.21591 17.2237C8.99128 17.2237 8.77295 17.2032 8.55993 17.1629C9.00377 18.5089 10.2925 19.4879 11.8202 19.5148C10.6255 20.424 9.12104 20.9646 7.48606 20.9646C7.20412 20.9646 6.92671 20.9485 6.65283 20.9172C8.19836 21.8783 10.0312 22.4395 12.0027 22.4395C18.4212 22.4395 21.9311 17.2775 21.9311 12.8028L21.9213 12.3643C22.6014 11.8881 23.1929 11.2921 23.661 10.6119Z" fill="white"/>
</g>
<defs>
<clipPath id="clip0">
<rect width="28.6378" height="28.6378" fill="white" transform="translate(0.390625 0.965393)"/>
</clipPath>
</defs>
</svg>
